<svg xmlns="http://www.w3.org/2000/svg" viewBox="0 0 64 64"><title>save money</title><g id="Layer_33" data-name="Layer 33"><path d="M42.493,36.448c-3.725,0-7.735,1.3-7.735,4.154V56.88c0,2.848,4.01,4.145,7.735,4.145s7.734-1.3,7.734-4.145V40.6C50.228,37.748,46.218,36.448,42.493,36.448Zm4.734,9.768c0,.016,0,.032,0,.048,0,.414-1.628,1.611-4.734,1.611-3.049,0-4.725-1.21-4.725-1.611,0-.017,0-.032,0-.048V44.759a12.629,12.629,0,0,0,9.469,0Zm-9.469,3.74a12.629,12.629,0,0,0,9.469,0v1.252c0,.016,0,.032,0,.048,0,.414-1.628,1.612-4.734,1.612-3.049,0-4.725-1.211-4.725-1.612,0-.017,0-.032,0-.048Zm4.735-10.507c2.83,0,4.462.842,4.734,1.233v.338c0,.016,0,.032,0,.048,0,.414-1.628,1.611-4.734,1.611-3.049,0-4.725-1.21-4.725-1.611,0-.017,0-.032,0-.048v-.337C38.033,40.291,39.666,39.448,42.493,39.448Zm0,18.576c-2.817,0-4.454-.838-4.735-1.229V54.947a12.628,12.628,0,0,0,9.469,0V56.8C46.948,57.188,45.313,58.024,42.493,58.024ZM19.527,29.448c-3.725,0-7.734,1.3-7.734,4.154V56.88c0,2.848,4.009,4.145,7.734,4.145s7.734-1.3,7.734-4.145V33.6C27.261,30.748,23.252,29.448,19.527,29.448ZM24.261,45.08c0,.015,0,.029,0,.044,0,.414-1.628,1.612-4.734,1.612-3.049,0-4.725-1.211-4.725-1.612,0-.017,0-.032,0-.048V43.2a11.649,11.649,0,0,0,4.73.92,11.672,11.672,0,0,0,4.739-.922Zm0-5.611c0,.015,0,.029,0,.044,0,.414-1.628,1.611-4.734,1.611-3.049,0-4.725-1.21-4.725-1.611,0-.017,0-.032,0-.048v-1.7a11.649,11.649,0,0,0,4.73.92,11.672,11.672,0,0,0,4.739-.922Zm-9.469,9.347a11.646,11.646,0,0,0,4.73.92,11.671,11.671,0,0,0,4.739-.922v1.878c0,.015,0,.029,0,.044,0,.414-1.628,1.611-4.734,1.611-3.049,0-4.725-1.21-4.725-1.611,0-.017,0-.032,0-.048Zm4.734-16.368c2.83,0,4.462.842,4.734,1.233v.343c0,.015,0,.029,0,.044,0,.414-1.628,1.611-4.734,1.611s-4.725-1.2-4.725-1.611c0-.017,0-.032,0-.048v-.337C15.067,33.291,16.7,32.448,19.527,32.448Zm0,25.576c-2.817,0-4.454-.838-4.734-1.229V54.427a11.649,11.649,0,0,0,4.73.92,11.672,11.672,0,0,0,4.739-.922V56.8C23.982,57.188,22.347,58.024,19.527,58.024ZM50.85,26.679A19.24,19.24,0,0,0,44.3,16.295c-2.377-1.788-6.976-3.767-10.018-5.075-.774-.333-1.611-.694-2.135-.934a3.491,3.491,0,0,0-1.383-2.828L25.737,3.679a3.5,3.5,0,0,0-4.9.693l-7.073,9.4a3.5,3.5,0,0,0,.693,4.9l5.026,3.779a3.439,3.439,0,0,0,4.008.112,15.735,15.735,0,0,1,1.935,2.955c.267.479.533.957.812,1.419A14.668,14.668,0,0,1,27.53,30.2l.239.751a3.19,3.19,0,0,0,2.992,2.23,2.96,2.96,0,0,0,.379-.031,2.791,2.791,0,0,0,.2,1.451c.557,1.282,1.979,1.945,3.836,1.945a11.667,11.667,0,0,0,4.542-1.055,9.48,9.48,0,0,0,4.941-4.139,3.912,3.912,0,0,0,3.275.419A4.4,4.4,0,0,0,50.85,26.679ZM21.985,19.96a.5.5,0,0,1-.7.1l-5.026-3.78a.5.5,0,0,1-.1-.7l7.073-9.4a.5.5,0,0,1,.4-.2.49.49,0,0,1,.3.1l5.026,3.779a.5.5,0,0,1,.1.7Zm13.479,7.129a8.7,8.7,0,0,1-.063-3.463c.231-.743,2.189-.4,2.41-.352a5.345,5.345,0,0,1,3.711,2.566c.2.35.368.711.528,1.067a10.417,10.417,0,0,0-5.641.963c-.319.139-.622.287-.916.44A7.33,7.33,0,0,0,35.464,27.089Zm3.06,5.651c-2.266.984-3.942.879-4.4.65.143-.486,1.21-1.783,3.476-2.768s3.943-.876,4.4-.65C41.856,30.46,40.79,31.757,38.524,32.74Zm8.559-3.846c-.225.068-.912.27-1.3-.711-.066-.167-.139-.364-.221-.584a22.224,22.224,0,0,0-1.423-3.229,8.339,8.339,0,0,0-5.765-4.044c-4.334-.825-5.525,1.408-5.835,2.406a9.764,9.764,0,0,0-.119,4.138l.063.542c.178,1.64-.388,2.546-1.726,2.77a.232.232,0,0,1-.131-.151l-.234-.735A17.243,17.243,0,0,0,28.8,25.39c-.26-.431-.508-.876-.756-1.323a16.944,16.944,0,0,0-2.569-3.76l5.471-7.273c.488.225,1.161.518,2.145.942,2.911,1.252,7.311,3.146,9.4,4.718a16.271,16.271,0,0,1,5.422,8.62A1.433,1.433,0,0,1,47.083,28.895ZM22.156,15.664a1.5,1.5,0,1,1-1.5-1.5A1.5,1.5,0,0,1,22.156,15.664Z"/></g></svg>